# Blender v2.93.4 OBJ File: 'normalmap.blend'
# www.blender.org
o Cylinder001_Mesh
v 35.144699 0.000000 0.000000
v 33.424595 0.000000 -10.860310
v 28.432659 0.000000 -20.657536
v 20.657536 0.000000 -28.432659
v 10.860309 0.000000 -33.424595
v -0.000002 0.000000 -35.144699
v -10.860311 0.000000 -33.424595
v -20.657534 0.000000 -28.432659
v -28.432661 0.000000 -20.657534
v -33.424599 0.000000 -10.860302
v -35.144699 0.000000 0.000011
v -33.424591 0.000000 10.860324
v -28.432646 0.000000 20.657553
v -20.657516 0.000000 28.432674
v -10.860281 0.000000 33.424603
v 0.000034 0.000000 35.144699
v 10.860346 0.000000 33.424583
v 20.657572 0.000000 28.432634
v 28.432686 0.000000 20.657497
v 33.424610 0.000000 10.860260
v 35.144699 2.325421 0.000000
v 33.424595 2.325421 -10.860310
v 28.432659 2.325421 -20.657536
v 20.657536 2.325421 -28.432659
v 10.860309 2.325421 -33.424595
v -0.000002 2.325421 -35.144699
v -10.860311 2.325421 -33.424595
v -20.657534 2.325421 -28.432659
v -28.432661 2.325421 -20.657534
v -33.424599 2.325421 -10.860302
v -35.144699 2.325421 0.000011
v -33.424591 2.325421 10.860324
v -28.432646 2.325421 20.657553
v -20.657516 2.325421 28.432674
v -10.860281 2.325421 33.424603
v 0.000034 2.325421 35.144699
v 10.860346 2.325421 33.424583
v 20.657572 2.325421 28.432634
v 28.432686 2.325421 20.657497
v 33.424610 2.325421 10.860260
v 17.572350 2.325421 0.000000
v 16.712297 2.325421 -5.430155
v 14.216330 2.325421 -10.328768
v 10.328768 2.325421 -14.216330
v 5.430154 2.325421 -16.712297
v -0.000001 2.325421 -17.572350
v -5.430155 2.325421 -16.712297
v -10.328767 2.325421 -14.216330
v -14.216331 2.325421 -10.328767
v -16.712299 2.325421 -5.430151
v -17.572350 2.325421 0.000006
v -16.712296 2.325421 5.430162
v -14.216323 2.325421 10.328776
v -10.328758 2.325421 14.216337
v -5.430140 2.325421 16.712301
v 0.000017 2.325421 17.572350
v 5.430173 2.325421 16.712292
v 10.328786 2.325421 14.216317
v 14.216343 2.325421 10.328749
v 16.712305 2.325421 5.430130
v 0.000000 2.325421 0.000000
vt 0.902743 0.181026
vt 0.902743 0.017207
vt 0.937820 0.017207
vt 0.937820 0.181026
vt 0.081378 0.178454
vt 0.081378 0.030670
vt 0.116456 0.030670
vt 0.116456 0.178454
vt 0.017859 0.345170
vt 0.017859 0.227888
vt 0.052936 0.227888
vt 0.052936 0.345170
vt 0.017575 0.804077
vt 0.017575 0.656293
vt 0.052653 0.656293
vt 0.052653 0.804077
vt 0.051664 0.989835
vt 0.051664 0.826015
vt 0.086741 0.826015
vt 0.086741 0.989835
vt 0.009862 0.991272
vt 0.009862 0.827452
vt 0.044939 0.827452
vt 0.044939 0.991272
vt 0.946886 0.982549
vt 0.946886 0.834765
vt 0.981964 0.834765
vt 0.981964 0.982549
vt 0.133703 0.146844
vt 0.133703 0.029562
vt 0.168780 0.029562
vt 0.168780 0.146844
vt 0.308279 0.992023
vt 0.147503 0.992023
vt 0.147503 0.953861
vt 0.308279 0.953861
vt 0.023543 0.209750
vt 0.023543 0.031529
vt 0.061704 0.031529
vt 0.061704 0.209750
vt 0.895836 0.985509
vt 0.895836 0.807288
vt 0.933998 0.807288
vt 0.933998 0.985509
vt 0.950809 0.184776
vt 0.950809 0.024000
vt 0.988971 0.024000
vt 0.988971 0.184776
vt 0.761753 0.051689
vt 0.634161 0.051689
vt 0.634161 0.013528
vt 0.761753 0.013528
vt 0.191707 0.016847
vt 0.352483 0.016847
vt 0.352483 0.055008
vt 0.191707 0.055008
vt 0.884158 0.988544
vt 0.705936 0.988544
vt 0.705936 0.950383
vt 0.884158 0.950383
vt 0.099348 0.990188
vt 0.099348 0.811967
vt 0.137510 0.811967
vt 0.137510 0.990188
vt 0.957854 0.361064
vt 0.957854 0.200288
vt 0.996015 0.200288
vt 0.996015 0.361064
vt 0.810048 0.134129
vt 0.810048 0.016847
vt 0.845125 0.016847
vt 0.845125 0.134129
vt 0.956584 0.822214
vt 0.956584 0.674429
vt 0.991661 0.674429
vt 0.991661 0.822214
vt 0.857931 0.177965
vt 0.857931 0.014146
vt 0.893008 0.014146
vt 0.893008 0.177965
vt 0.079566 0.302286
vt 0.164957 0.180335
vt 0.336102 0.345607
vt 0.293406 0.406583
vt 0.283854 0.090740
vt 0.395550 0.300809
vt 0.424618 0.042271
vt 0.465932 0.276575
vt 0.573470 0.039672
vt 0.540358 0.275276
vt 0.715840 0.083199
vt 0.611543 0.297039
vt 0.837791 0.168590
vt 0.672518 0.339735
vt 0.927386 0.287487
vt 0.717316 0.399183
vt 0.975855 0.428251
vt 0.741551 0.469565
vt 0.978453 0.577103
vt 0.742850 0.543991
vt 0.934926 0.719473
vt 0.721086 0.615176
vt 0.849535 0.841424
vt 0.678391 0.676152
vt 0.730638 0.931019
vt 0.618942 0.720949
vt 0.589874 0.979488
vt 0.548560 0.745184
vt 0.441022 0.982086
vt 0.474134 0.746483
vt 0.298652 0.938560
vt 0.402949 0.724720
vt 0.176701 0.853168
vt 0.341973 0.682024
vt 0.087106 0.734271
vt 0.297176 0.622575
vt 0.038637 0.593507
vt 0.272942 0.552193
vt 0.036039 0.444655
vt 0.271643 0.477767
vt 0.507246 0.510880
vn 1.0000 0.0000 -0.0000
vn 0.9511 0.0000 -0.3090
vn 0.8090 0.0000 -0.5878
vn 0.5878 0.0000 -0.8090
vn 0.3090 0.0000 -0.9511
vn -0.0000 0.0000 -1.0000
vn -0.3090 0.0000 -0.9511
vn -0.5878 0.0000 -0.8090
vn -0.8090 0.0000 -0.5878
vn -0.9511 0.0000 -0.3090
vn -1.0000 0.0000 0.0000
vn -0.9511 0.0000 0.3090
vn -0.8090 0.0000 0.5878
vn -0.5878 0.0000 0.8090
vn -0.3090 0.0000 0.9511
vn 0.0000 0.0000 1.0000
vn 0.3090 0.0000 0.9511
vn 0.5878 0.0000 0.8090
vn 0.8090 0.0000 0.5878
vn 0.9511 0.0000 0.3090
vn 0.0000 1.0000 -0.0000
usemtl Material.001
s 1
f 1/1/1 2/2/2 22/3/2 21/4/1
f 2/5/2 3/6/3 23/7/3 22/8/2
f 3/9/3 4/10/4 24/11/4 23/12/3
f 4/13/4 5/14/5 25/15/5 24/16/4
f 5/17/5 6/18/6 26/19/6 25/20/5
f 6/21/6 7/22/7 27/23/7 26/24/6
f 7/25/7 8/26/8 28/27/8 27/28/7
f 8/29/8 9/30/9 29/31/9 28/32/8
f 9/33/9 10/34/10 30/35/10 29/36/9
f 10/37/10 11/38/11 31/39/11 30/40/10
f 11/41/11 12/42/12 32/43/12 31/44/11
f 12/45/12 13/46/13 33/47/13 32/48/12
f 13/49/13 14/50/14 34/51/14 33/52/13
f 14/53/14 15/54/15 35/55/15 34/56/14
f 15/57/15 16/58/16 36/59/16 35/60/15
f 16/61/16 17/62/17 37/63/17 36/64/16
f 17/65/17 18/66/18 38/67/18 37/68/17
f 18/69/18 19/70/19 39/71/19 38/72/18
f 19/73/19 20/74/20 40/75/20 39/76/19
f 20/77/20 1/78/1 21/79/1 40/80/20
f 21/81/21 22/82/21 42/83/21 41/84/21
f 22/82/21 23/85/21 43/86/21 42/83/21
f 23/85/21 24/87/21 44/88/21 43/86/21
f 24/87/21 25/89/21 45/90/21 44/88/21
f 25/89/21 26/91/21 46/92/21 45/90/21
f 26/91/21 27/93/21 47/94/21 46/92/21
f 27/93/21 28/95/21 48/96/21 47/94/21
f 28/95/21 29/97/21 49/98/21 48/96/21
f 29/97/21 30/99/21 50/100/21 49/98/21
f 30/99/21 31/101/21 51/102/21 50/100/21
f 31/101/21 32/103/21 52/104/21 51/102/21
f 32/103/21 33/105/21 53/106/21 52/104/21
f 33/105/21 34/107/21 54/108/21 53/106/21
f 34/107/21 35/109/21 55/110/21 54/108/21
f 35/109/21 36/111/21 56/112/21 55/110/21
f 36/111/21 37/113/21 57/114/21 56/112/21
f 37/113/21 38/115/21 58/116/21 57/114/21
f 38/115/21 39/117/21 59/118/21 58/116/21
f 39/117/21 40/119/21 60/120/21 59/118/21
f 40/119/21 21/81/21 41/84/21 60/120/21
f 61/121/21 41/84/21 42/83/21
f 61/121/21 42/83/21 43/86/21
f 61/121/21 43/86/21 44/88/21
f 61/121/21 44/88/21 45/90/21
f 61/121/21 45/90/21 46/92/21
f 61/121/21 46/92/21 47/94/21
f 61/121/21 47/94/21 48/96/21
f 61/121/21 48/96/21 49/98/21
f 61/121/21 49/98/21 50/100/21
f 61/121/21 50/100/21 51/102/21
f 61/121/21 51/102/21 52/104/21
f 61/121/21 52/104/21 53/106/21
f 61/121/21 53/106/21 54/108/21
f 61/121/21 54/108/21 55/110/21
f 61/121/21 55/110/21 56/112/21
f 61/121/21 56/112/21 57/114/21
f 61/121/21 57/114/21 58/116/21
f 61/121/21 58/116/21 59/118/21
f 61/121/21 59/118/21 60/120/21
f 61/121/21 60/120/21 41/84/21
